<?xml version="1.0" encoding="UTF-8" standalone="no"?>
<svg
   xmlns:dc="http://purl.org/dc/elements/1.1/"
   xmlns:cc="http://creativecommons.org/ns#"
   xmlns:rdf="http://www.w3.org/1999/02/22-rdf-syntax-ns#"
   xmlns:svg="http://www.w3.org/2000/svg"
   xmlns="http://www.w3.org/2000/svg"
   height="45"
   width="45"
   id="svg18"
   xml:space="preserve"
   enable-background="new 0 0 100 100"
   viewBox="0 0 45 45"
   version="1.1"><metadata
     id="metadata24"><rdf:RDF><cc:Work
         rdf:about=""><dc:format>image/svg+xml</dc:format><dc:type
           rdf:resource="http://purl.org/dc/dcmitype/StillImage" /><dc:title></dc:title></cc:Work></rdf:RDF></metadata><defs
     id="defs22" /><path
     style="stroke-width:0.5"
     d="m 37.115627,16.571374 c -0.5555,0 -1.133,0.0145 -1.7205,0.0295 -0.0525,10e-4 -0.1065,10e-4 -0.159,0.0025 0.1975,0.4925 0.3125,1.027 0.3125,1.589 0,0.3635 -0.0585,0.711 -0.1445,1.0485 0.0195,-5e-4 0.039,-5e-4 0.0585,-5e-4 0.5645,-0.014 1.119,-0.0285 1.6535,-0.0285 3.378,0 4.0225,0.643 4.0635,2.173 l -3.518,12.73 v 0.1785 c 0,1.0675 -2.077,1.662 -3.3145,1.921 -2.539,0.531 -5.838,0.592 -8.0985,0.592 h -10e-4 c -0.8215,0 -1.594,-0.009 -2.283,-0.0165 -0.564,-0.006 -1.073,-0.0125 -1.508,-0.0125 -0.435,0 -0.9435,0.007 -1.507,0.0125 -0.689,0.008 -1.462,0.0165 -2.2835,0.0165 -10.3014998,0 -11.4139998,-1.757 -11.4139998,-2.5125 v -0.1785 l -3.5185,-12.7305 c 0.0415,-1.53 0.6865,-2.173 4.0645,-2.173 0.5345,0 1.089,0.0145 1.654,0.0285 0.019,0 0.0385,0 0.0575,5e-4 -0.0855,-0.3375 -0.145,-0.685 -0.145,-1.0485 0,-0.562 0.1155,-1.0965 0.3125,-1.589 -0.0525,-0.0015 -0.1065,-0.0015 -0.159,-0.0025 -0.587,-0.0145 -1.1645,-0.0295 -1.7205,-0.0295 -2.007,0 -6.707,0 -6.707,4.9845 v 0.1785 l 3.525,12.7555 c 0.248,4.957 9.8979998,4.957 14.0494998,4.957 0.833,0 1.616,-0.009 2.314,-0.0175 1.1045,-0.0115 1.8485,-0.0115 2.9535,0 0.6985,0.009 1.4815,0.0175 2.314,0.0175 h 0.001 c 2.379,0 5.8605,-0.0675 8.6385,-0.6485 3.4865,-0.7295 5.3055,-2.1785 5.41,-4.3095 l 3.5245,-12.7545 v -0.1785 c 10e-4,-4.9845 -4.698,-4.9845 -6.705,-4.9845 z"
     id="path2" /><path
     style="stroke-width:0.5"
     d="m 17.641627,16.630874 c 0.191,0.485 0.3045,1.009 0.3045,1.562 0,0.375 -0.0635,0.7315 -0.1545,1.0785 h 9.33 c -0.091,-0.347 -0.1545,-0.704 -0.1545,-1.0785 0,-0.5525 0.1135,-1.077 0.3045,-1.562 z"
     id="path4" /><path
     style="stroke-width:0.5"
     d="m 29.007627,14.555874 c 0.125,0.4295 0.25,0.8585 0.375,1.2885 -0.6925,0.5545 -1.1445,1.395 -1.1445,2.348 0,1.665 1.3545,3.0205 3.0205,3.0205 1.665,0 3.0195,-1.3555 3.0195,-3.0205 0,-1.5875 -1.2345,-2.8785 -2.792,-2.997 -0.124,-0.4265 -0.248,-0.8525 -0.371,-1.279 -0.7265,-2.502 -1.454,-5.0035002 -2.1805,-7.5055002 -0.3955,-1.3595 -2.5185,-0.7805 -2.122,0.5855 0.732,2.5195 1.4635,5.0395002 2.195,7.5595002 z m 2.251,2.3765 c 0.6945,0 1.26,0.5645 1.26,1.26 0,0.6955 -0.5655,1.26 -1.26,1.26 -0.6955,0 -1.2605,-0.5645 -1.2605,-1.26 0,-0.6955 0.565,-1.26 1.2605,-1.26 z"
     id="path6" /><path
     style="stroke-width:0.5"
     d="m 13.655127,21.212874 c 1.6655,0 3.0205,-1.3555 3.0205,-3.0205 0,-0.953 -0.4525,-1.7935 -1.1445,-2.348 0.1245,-0.4295 0.2495,-0.8585 0.3745,-1.2885 0.732,-2.5205 1.4635,-5.0405002 2.1955,-7.5600002 0.3965,-1.3655 -1.727,-1.945 -2.122,-0.5855 -0.727,2.502 -1.4535,5.0035002 -2.18,7.5055002 -0.124,0.4265 -0.2475,0.853 -0.3715,1.279 -1.5575,0.1185 -2.7925,1.4095 -2.7925,2.997 0,1.6655 1.355,3.021 3.02,3.021 z m 0,-4.2805 c 0.695,0 1.26,0.5645 1.26,1.26 0,0.6955 -0.565,1.26 -1.26,1.26 -0.695,0 -1.26,-0.5645 -1.26,-1.26 0,-0.6955 0.5655,-1.26 1.26,-1.26 z"
     id="path8" /><path
     style="stroke-width:0.5"
     d="m 21.248127,23.498874 c 0,3.008 0,6.0135 0,9.0215 0,1.419 2.2005,1.419 2.2005,0 0,-3.008 0,-6.0135 0,-9.0215 0,-1.419 -2.2005,-1.419 -2.2005,0 z"
     id="path10" /><path
     style="stroke-width:0.5"
     d="m 32.446127,23.518374 c -0.785,2.9045 -1.5705,5.8075 -2.3565,8.709 -0.371,1.372 1.752,1.953 2.122,0.586 0.785,-2.9035 1.5705,-5.8065 2.3565,-8.708 0.37,-1.372 -1.752,-1.954 -2.122,-0.587 z"
     id="path12" /><path
     style="stroke-width:0.5"
     d="m 12.701627,32.813374 c 0.3705,1.367 2.493,0.786 2.122,-0.586 -0.7855,-2.9015 -1.5705,-5.8045 -2.356,-8.709 -0.3705,-1.367 -2.4929998,-0.785 -2.122,0.587 0.786,2.9015 1.571,5.8045 2.356,8.708 z"
     id="path14" /></svg>