<?xml version="1.0" encoding="UTF-8" standalone="no"?>
<svg
   xmlns:dc="http://purl.org/dc/elements/1.1/"
   xmlns:cc="http://creativecommons.org/ns#"
   xmlns:rdf="http://www.w3.org/1999/02/22-rdf-syntax-ns#"
   xmlns:svg="http://www.w3.org/2000/svg"
   xmlns="http://www.w3.org/2000/svg"
   xmlns:sodipodi="http://sodipodi.sourceforge.net/DTD/sodipodi-0.dtd"
   xmlns:inkscape="http://www.inkscape.org/namespaces/inkscape"
   version="1.1"
   viewBox="0 0 100 100"
   enable-background="new 0 0 100 100"
   xml:space="preserve"
   id="svg18"
   sodipodi:docname="noun_basket_731603.svg"
   inkscape:version="0.92.4 (5da689c313, 2019-01-14)"><metadata
     id="metadata24"><rdf:RDF><cc:Work
         rdf:about=""><dc:format>image/svg+xml</dc:format><dc:type
           rdf:resource="http://purl.org/dc/dcmitype/StillImage" /><dc:title></dc:title></cc:Work></rdf:RDF></metadata><defs
     id="defs22" /><sodipodi:namedview
     pagecolor="#ffffff"
     bordercolor="#666666"
     borderopacity="1"
     objecttolerance="10"
     gridtolerance="10"
     guidetolerance="10"
     inkscape:pageopacity="0"
     inkscape:pageshadow="2"
     inkscape:window-width="1918"
     inkscape:window-height="864"
     id="namedview20"
     showgrid="false"
     inkscape:zoom="2.36"
     inkscape:cx="-42.79661"
     inkscape:cy="50"
     inkscape:window-x="0"
     inkscape:window-y="27"
     inkscape:window-maximized="1"
     inkscape:current-layer="svg18" /><g
     id="g16"
     transform="matrix(0.5,0,0,0.5,24.999,24.999501)"><path
       d="m 79.318,38.059 c -1.111,0 -2.266,0.029 -3.441,0.059 -0.105,0.002 -0.213,0.002 -0.318,0.005 0.395,0.985 0.625,2.054 0.625,3.178 0,0.727 -0.117,1.422 -0.289,2.097 0.039,-0.001 0.078,-0.001 0.117,-0.001 1.129,-0.028 2.238,-0.057 3.307,-0.057 6.756,0 8.045,1.286 8.127,4.346 l -7.036,25.46 v 0.357 c 0,2.135 -4.154,3.324 -6.629,3.842 -5.078,1.062 -11.676,1.184 -16.197,1.184 h -0.002 c -1.643,0 -3.188,-0.018 -4.566,-0.033 C 51.888,78.484 50.87,78.471 50,78.471 c -0.87,0 -1.887,0.014 -3.014,0.025 -1.378,0.016 -2.924,0.033 -4.567,0.033 -20.603,0 -22.828,-3.514 -22.828,-5.025 V 73.147 L 12.554,47.686 c 0.083,-3.06 1.373,-4.346 8.129,-4.346 1.069,0 2.178,0.029 3.308,0.057 0.038,0 0.077,0 0.115,0.001 -0.171,-0.675 -0.29,-1.37 -0.29,-2.097 0,-1.124 0.231,-2.193 0.625,-3.178 -0.105,-0.003 -0.213,-0.003 -0.318,-0.005 -1.174,-0.029 -2.329,-0.059 -3.441,-0.059 -4.014,0 -13.414,0 -13.414,9.969 v 0.357 l 7.05,25.511 c 0.496,9.914 19.796,9.914 28.099,9.914 1.666,0 3.232,-0.018 4.628,-0.035 2.209,-0.023 3.697,-0.023 5.907,0 1.397,0.018 2.963,0.035 4.628,0.035 h 0.002 c 4.758,0 11.721,-0.135 17.277,-1.297 6.973,-1.459 10.611,-4.357 10.82,-8.619 l 7.049,-25.509 v -0.357 c 0.002,-9.969 -9.396,-9.969 -13.41,-9.969 z"
       id="path2"
       inkscape:connector-curvature="0" /><path
       d="m 40.37,38.178 c 0.382,0.97 0.609,2.018 0.609,3.124 0,0.75 -0.127,1.463 -0.309,2.157 h 18.66 c -0.182,-0.694 -0.309,-1.408 -0.309,-2.157 0,-1.105 0.227,-2.154 0.609,-3.124 H 40.37 Z"
       id="path4"
       inkscape:connector-curvature="0" /><path
       d="m 63.102,34.028 c 0.25,0.859 0.5,1.717 0.75,2.577 -1.385,1.109 -2.289,2.79 -2.289,4.696 0,3.33 2.709,6.041 6.041,6.041 3.33,0 6.039,-2.711 6.039,-6.041 0,-3.175 -2.469,-5.757 -5.584,-5.994 -0.248,-0.853 -0.496,-1.705 -0.742,-2.558 -1.453,-5.004 -2.908,-10.007 -4.361,-15.011 -0.791,-2.719 -5.037,-1.561 -4.244,1.171 1.464,5.039 2.927,10.079 4.39,15.119 z m 4.502,4.753 c 1.389,0 2.52,1.129 2.52,2.52 0,1.391 -1.131,2.52 -2.52,2.52 -1.391,0 -2.521,-1.129 -2.521,-2.52 0,-1.391 1.13,-2.52 2.521,-2.52 z"
       id="path6"
       inkscape:connector-curvature="0" /><path
       d="m 32.397,47.342 c 3.331,0 6.041,-2.711 6.041,-6.041 0,-1.906 -0.905,-3.587 -2.289,-4.696 0.249,-0.859 0.499,-1.717 0.749,-2.577 1.464,-5.041 2.927,-10.081 4.391,-15.12 0.793,-2.731 -3.454,-3.89 -4.244,-1.171 -1.454,5.004 -2.907,10.007 -4.36,15.011 -0.248,0.853 -0.495,1.706 -0.743,2.558 -3.115,0.237 -5.585,2.819 -5.585,5.994 0,3.331 2.71,6.042 6.04,6.042 z m 0,-8.561 c 1.39,0 2.52,1.129 2.52,2.52 0,1.391 -1.13,2.52 -2.52,2.52 -1.39,0 -2.52,-1.129 -2.52,-2.52 0,-1.391 1.131,-2.52 2.52,-2.52 z"
       id="path8"
       inkscape:connector-curvature="0" /><path
       d="m 47.583,51.914 c 0,6.016 0,12.027 0,18.043 0,2.838 4.401,2.838 4.401,0 0,-6.016 0,-12.027 0,-18.043 0,-2.838 -4.401,-2.838 -4.401,0 z"
       id="path10"
       inkscape:connector-curvature="0" /><path
       d="m 69.979,51.953 c -1.57,5.809 -3.141,11.615 -4.713,17.418 -0.742,2.744 3.504,3.906 4.244,1.172 1.57,-5.807 3.141,-11.613 4.713,-17.416 0.74,-2.744 -3.504,-3.908 -4.244,-1.174 z"
       id="path12"
       inkscape:connector-curvature="0" /><path
       d="m 30.49,70.543 c 0.741,2.734 4.986,1.572 4.244,-1.172 -1.571,-5.803 -3.141,-11.609 -4.712,-17.418 -0.741,-2.734 -4.986,-1.57 -4.244,1.174 1.572,5.803 3.142,11.609 4.712,17.416 z"
       id="path14"
       inkscape:connector-curvature="0" /></g></svg>