<?xml version="1.0" encoding="iso-8859-1"?>
<!-- Generator: Adobe Illustrator 19.0.0, SVG Export Plug-In . SVG Version: 6.00 Build 0)  -->
<svg version="1.1" id="Layer_1" xmlns="http://www.w3.org/2000/svg" xmlns:xlink="http://www.w3.org/1999/xlink" x="0px" y="0px"
	 viewBox="0 0 512.001 512.001" style="enable-background:new 0 0 512.001 512.001;" xml:space="preserve">
<g>
	<g>
		<path d="M303.175,154.007v-25.894c11.529-4.524,19.718-15.754,19.718-28.869v-1.565c0-17.097-13.91-31.006-31.005-31.006H65.542
			c-17.096,0-31.005,13.908-31.005,31.006v1.565c0,13.117,8.192,24.348,19.723,28.871v25.892C19.718,187.54,0,234.001,0,282.249
			c0,34.684,9.952,68.325,28.78,97.284c18.335,28.202,44.104,50.601,74.523,64.779c1.435,0.669,2.999,1.015,4.582,1.015h141.666
			c1.583,0,3.147-0.346,4.582-1.015c30.418-14.177,56.188-36.578,74.523-64.779c18.828-28.959,28.78-62.6,28.78-97.284
			C357.434,234.001,337.717,187.54,303.175,154.007z M56.228,97.679c0-5.135,4.178-9.314,9.314-9.314h226.345
			c5.135,0,9.314,4.178,9.314,9.314v1.565c0,5.135-4.179,9.314-9.314,9.314H65.542c-5.135,0-9.314-4.179-9.314-9.314V97.679z
			 M281.483,130.25v17.582H75.951V130.25H281.483z M310.469,367.711c-15.687,24.129-37.561,43.425-63.365,55.927H110.331
			c-25.804-12.502-47.677-31.797-63.365-55.927c-16.535-25.433-25.275-54.984-25.275-85.462c0-42.415,17.343-83.26,47.725-112.726
			H288.02c30.382,29.467,47.724,70.31,47.724,112.726C335.743,312.726,327.004,342.278,310.469,367.711z"/>
	</g>
</g>
<g>
	<g>
		<path d="M257.539,328.412l-19.088-33.062l19.088-33.062c1.937-3.354,1.937-7.49-0.001-10.846l-22.219-38.486
			c-1.937-3.356-5.517-5.423-9.392-5.423h-44.439c-3.875,0-7.455,2.067-9.392,5.423l-19.088,33.062h-38.178
			c-3.875,0-7.455,2.067-9.392,5.423l-22.219,38.486c-1.938,3.356-1.938,7.49,0,10.846l22.219,38.485
			c1.937,3.356,5.517,5.423,9.392,5.423h38.178l19.089,33.063c1.937,3.356,5.517,5.423,9.392,5.423h44.439
			c3.875,0,7.455-2.067,9.392-5.423l22.219-38.486C259.478,335.903,259.478,331.768,257.539,328.412z M160.985,309.171l-7.979,13.82
			h-31.915l-15.958-27.639l15.958-27.64h31.915l15.958,27.64L160.985,309.171z M219.665,361.478h-31.917l-15.958-27.64l7.979-13.82
			l7.979-13.82h31.915l15.958,27.639L219.665,361.478z M219.665,284.506h-31.917l-0.228-0.394l-15.73-27.245l15.958-27.64h31.915
			l15.958,27.64L219.665,284.506z"/>
	</g>
</g>
<g>
	<g>
		<path d="M512.001,142.983H512c0-10.809-5.974-20.244-14.789-25.193c1.37-3.358,2.13-7.026,2.13-10.87
			c0-15.922-12.954-28.876-28.877-28.876h-52.68c-15.922,0-28.877,12.954-28.877,28.876c0,3.844,0.761,7.512,2.131,10.87
			c-8.816,4.949-14.789,14.385-14.789,25.194c0,6.818,2.381,13.085,6.346,18.031c-3.965,4.946-6.346,11.214-6.346,18.032
			c0,10.809,5.974,20.244,14.789,25.193c-1.37,3.358-2.131,7.026-2.131,10.87c0,15.922,12.954,28.877,28.877,28.877h13.831
			l-21.56,150.681c-1.414,9.883,1.526,19.878,8.067,27.421c6.541,7.542,16.018,11.868,26.001,11.868
			c9.984,0,19.461-4.326,26.002-11.868c6.541-7.543,9.481-17.539,8.067-27.421l-21.56-150.681h13.833
			c15.922,0,28.877-12.954,28.877-28.877c0-3.844-0.761-7.512-2.13-10.87c8.815-4.949,14.789-14.385,14.789-25.193
			c0-6.818-2.381-13.086-6.346-18.032c3.966-4.946,6.346-11.213,6.346-18.031V142.983z M417.784,99.735h52.68
			c3.962,0,7.185,3.223,7.185,7.185s-3.223,7.186-7.185,7.186h-52.68c-3.962,0-7.185-3.224-7.185-7.186
			C410.598,102.959,413.822,99.735,417.784,99.735z M456.72,397.739c0.53,3.708-0.528,7.309-2.983,10.14
			c-2.454,2.83-5.869,4.388-9.614,4.388s-7.159-1.559-9.612-4.388c-2.454-2.83-3.513-6.431-2.983-10.14l12.595-88.029
			L456.72,397.739z M470.464,222.295h-52.68c-3.962,0-7.185-3.223-7.185-7.185s3.223-7.186,7.185-7.186h52.68
			c3.962,0,7.185,3.224,7.185,7.186C477.65,219.073,474.426,222.295,470.464,222.295z M483.123,186.233c-25.999,0-51.998,0-77.997,0
			c-3.962,0-7.186-3.223-7.186-7.185s3.223-7.186,7.186-7.186h77.998c3.962,0,7.186,3.224,7.186,7.186
			C490.309,183.01,487.085,186.233,483.123,186.233z M483.123,150.17h-77.997c-3.962,0-7.186-3.224-7.186-7.186
			s3.223-7.185,7.186-7.185c25.999,0,51.998,0,77.998,0c3.962,0,7.186,3.224,7.186,7.186S487.085,150.17,483.123,150.17z"/>
	</g>
</g>
<g>
</g>
<g>
</g>
<g>
</g>
<g>
</g>
<g>
</g>
<g>
</g>
<g>
</g>
<g>
</g>
<g>
</g>
<g>
</g>
<g>
</g>
<g>
</g>
<g>
</g>
<g>
</g>
<g>
</g>
</svg>
