<?xml version="1.0" encoding="iso-8859-1"?>
<svg version="1.1" xmlns="http://www.w3.org/2000/svg"
	 viewBox="-20 55 400 400" xml:space="preserve">
	<style type="text/css">
		#interieur
		{
		fill: #FFF;
		}

		#interieur:hover
		{
		fill: #5bc7ab;
		}
	</style>
<path style="fill:black;" d="M357.061,281.948c0,34.648-9.946,68.255-28.754,97.182c-18.321,28.169-44.062,50.552-74.441,64.712
	c-1.43,0.672-3.001,1.018-4.583,1.018H107.767c-1.582,0-3.142-0.347-4.572-1.018c-30.39-14.16-56.132-36.544-74.441-64.712
	C9.946,350.203,0,316.595,0,281.948c0-48.19,19.696-94.604,54.203-128.103v-25.861c-11.517-4.518-19.707-15.742-19.707-28.84v-1.571
	c0-17.075,13.9-30.975,30.975-30.975h226.109c17.075,0,30.975,13.9,30.975,30.975v1.571c0,13.098-8.18,24.312-19.696,28.83v25.872
	C337.354,187.344,357.061,233.757,357.061,281.948z M310.138,367.321c16.522-25.406,25.254-54.929,25.254-85.373
	c0-42.372-17.324-83.174-47.681-112.61H69.339c-30.346,29.436-47.67,70.238-47.67,112.61c0,30.444,8.732,59.967,25.244,85.373
	c15.677,24.106,37.529,43.38,63.304,55.872h136.629C272.62,410.701,294.472,391.427,310.138,367.321z M300.886,99.143v-1.571
	c0-5.125-4.182-9.307-9.307-9.307H65.471c-5.125,0-9.307,4.182-9.307,9.307v1.571c0,5.125,4.182,9.296,9.307,9.296h226.109
	C296.704,108.439,300.886,104.268,300.886,99.143z M281.189,147.669v-17.562H75.872v17.562H281.189z"/>
<path id="interieur" d="M335.393,281.948c0,30.444-8.732,59.967-25.254,85.373c-15.666,24.106-37.519,43.38-63.293,55.872
	H110.216c-25.774-12.492-47.627-31.766-63.304-55.872c-16.511-25.406-25.244-54.929-25.244-85.373
	c0-42.372,17.324-83.174,47.67-112.61h218.373C318.069,198.774,335.393,239.575,335.393,281.948z "/>
</svg>
